<mxfile host="app.diagrams.net" modified="2022-01-12T13:02:17.670Z" agent="5.0 (Windows NT 10.0; Win64; x64) AppleWebKit/537.36 (KHTML, like Gecko) Chrome/97.0.4692.71 Safari/537.36" etag="QYlzsKZaBE7cPjbNkXkD" version="16.2.4" type="github">
  <diagram id="C5RBs43oDa-KdzZeNtuy" name="Page-1">
    <mxGraphModel dx="1483" dy="770" grid="1" gridSize="10" guides="1" tooltips="1" connect="1" arrows="1" fold="1" page="1" pageScale="1" pageWidth="1169" pageHeight="827" math="0" shadow="0">
      <root>
        <mxCell id="WIyWlLk6GJQsqaUBKTNV-0" />
        <mxCell id="WIyWlLk6GJQsqaUBKTNV-1" parent="WIyWlLk6GJQsqaUBKTNV-0" />
        <mxCell id="WIyWlLk6GJQsqaUBKTNV-2" value="RegisterArticle" style="rounded=0;html=1;jettySize=auto;orthogonalLoop=1;fontSize=11;endArrow=block;endFill=0;endSize=8;strokeWidth=1;shadow=0;labelBackgroundColor=none;edgeStyle=orthogonalEdgeStyle;" parent="WIyWlLk6GJQsqaUBKTNV-1" source="WIyWlLk6GJQsqaUBKTNV-3" target="WIyWlLk6GJQsqaUBKTNV-6" edge="1">
          <mxGeometry x="-0.2" y="46" relative="1" as="geometry">
            <mxPoint as="offset" />
          </mxGeometry>
        </mxCell>
        <mxCell id="WIyWlLk6GJQsqaUBKTNV-3" value="Frontend" style="rounded=1;whiteSpace=wrap;html=1;fontSize=12;glass=0;strokeWidth=1;shadow=0;" parent="WIyWlLk6GJQsqaUBKTNV-1" vertex="1">
          <mxGeometry x="454" y="80" width="120" height="40" as="geometry" />
        </mxCell>
        <mxCell id="WIyWlLk6GJQsqaUBKTNV-4" value="createServer(restApi)" style="rounded=0;html=1;jettySize=auto;orthogonalLoop=1;fontSize=11;endArrow=block;endFill=0;endSize=8;strokeWidth=1;shadow=0;labelBackgroundColor=none;edgeStyle=orthogonalEdgeStyle;" parent="WIyWlLk6GJQsqaUBKTNV-1" source="WIyWlLk6GJQsqaUBKTNV-6" target="WIyWlLk6GJQsqaUBKTNV-10" edge="1">
          <mxGeometry y="60" relative="1" as="geometry">
            <mxPoint as="offset" />
            <Array as="points">
              <mxPoint x="514" y="280" />
              <mxPoint x="514" y="280" />
            </Array>
          </mxGeometry>
        </mxCell>
        <mxCell id="WIyWlLk6GJQsqaUBKTNV-6" value="Server.js" style="rhombus;whiteSpace=wrap;html=1;shadow=0;fontFamily=Helvetica;fontSize=12;align=center;strokeWidth=1;spacing=6;spacingTop=-4;" parent="WIyWlLk6GJQsqaUBKTNV-1" vertex="1">
          <mxGeometry x="464" y="170" width="100" height="80" as="geometry" />
        </mxCell>
        <mxCell id="WIyWlLk6GJQsqaUBKTNV-10" value="restApi.js" style="rhombus;whiteSpace=wrap;html=1;shadow=0;fontFamily=Helvetica;fontSize=12;align=center;strokeWidth=1;spacing=6;spacingTop=-4;" parent="WIyWlLk6GJQsqaUBKTNV-1" vertex="1">
          <mxGeometry x="464" y="290" width="100" height="80" as="geometry" />
        </mxCell>
        <mxCell id="sJuYMFzOjBdGln9-IdsL-3" value="ArticleRouter" style="rhombus;whiteSpace=wrap;html=1;shadow=0;fontFamily=Helvetica;fontSize=12;align=center;strokeWidth=1;spacing=6;spacingTop=-4;" vertex="1" parent="WIyWlLk6GJQsqaUBKTNV-1">
          <mxGeometry x="524" y="400" width="100" height="80" as="geometry" />
        </mxCell>
        <mxCell id="sJuYMFzOjBdGln9-IdsL-6" value="routes" style="rounded=0;html=1;jettySize=auto;orthogonalLoop=1;fontSize=11;endArrow=block;endFill=0;endSize=8;strokeWidth=1;shadow=0;labelBackgroundColor=none;edgeStyle=orthogonalEdgeStyle;entryX=0.5;entryY=0;entryDx=0;entryDy=0;horizontal=1;" edge="1" parent="WIyWlLk6GJQsqaUBKTNV-1" target="sJuYMFzOjBdGln9-IdsL-7">
          <mxGeometry x="-0.3296" y="10" relative="1" as="geometry">
            <mxPoint as="offset" />
            <mxPoint x="513.5" y="370" as="sourcePoint" />
            <mxPoint x="513.5" y="410" as="targetPoint" />
            <Array as="points">
              <mxPoint x="514" y="400" />
            </Array>
          </mxGeometry>
        </mxCell>
        <mxCell id="sJuYMFzOjBdGln9-IdsL-7" value="AuthRouter" style="rhombus;whiteSpace=wrap;html=1;shadow=0;fontFamily=Helvetica;fontSize=12;align=center;strokeWidth=1;spacing=6;spacingTop=-4;" vertex="1" parent="WIyWlLk6GJQsqaUBKTNV-1">
          <mxGeometry x="404" y="400" width="100" height="80" as="geometry" />
        </mxCell>
        <mxCell id="sJuYMFzOjBdGln9-IdsL-8" value="" style="rounded=0;html=1;jettySize=auto;orthogonalLoop=1;fontSize=11;endArrow=block;endFill=0;endSize=8;strokeWidth=1;shadow=0;labelBackgroundColor=none;edgeStyle=orthogonalEdgeStyle;entryX=0.5;entryY=0;entryDx=0;entryDy=0;horizontal=1;" edge="1" parent="WIyWlLk6GJQsqaUBKTNV-1" target="sJuYMFzOjBdGln9-IdsL-3">
          <mxGeometry x="0.337" y="20" relative="1" as="geometry">
            <mxPoint x="1" as="offset" />
            <mxPoint x="513.5" y="370" as="sourcePoint" />
            <mxPoint x="454" y="400" as="targetPoint" />
            <Array as="points">
              <mxPoint x="514" y="400" />
            </Array>
          </mxGeometry>
        </mxCell>
        <mxCell id="sJuYMFzOjBdGln9-IdsL-9" value="" style="endArrow=none;dashed=1;html=1;dashPattern=1 3;strokeWidth=2;rounded=0;" edge="1" parent="WIyWlLk6GJQsqaUBKTNV-1">
          <mxGeometry width="50" height="50" relative="1" as="geometry">
            <mxPoint x="624" y="439.5" as="sourcePoint" />
            <mxPoint x="694" y="439.5" as="targetPoint" />
          </mxGeometry>
        </mxCell>
        <mxCell id="sJuYMFzOjBdGln9-IdsL-10" value="" style="swimlane;startSize=0;" vertex="1" parent="WIyWlLk6GJQsqaUBKTNV-1">
          <mxGeometry x="694" y="400" width="95" height="80" as="geometry">
            <mxRectangle x="400" y="400" width="50" height="40" as="alternateBounds" />
          </mxGeometry>
        </mxCell>
        <mxCell id="sJuYMFzOjBdGln9-IdsL-11" value="ArticleModel&lt;br&gt;&lt;br&gt;ArticleController" style="text;html=1;align=center;verticalAlign=middle;resizable=0;points=[];autosize=1;strokeColor=none;fillColor=none;" vertex="1" parent="sJuYMFzOjBdGln9-IdsL-10">
          <mxGeometry x="-2.5" y="15" width="100" height="50" as="geometry" />
        </mxCell>
        <mxCell id="sJuYMFzOjBdGln9-IdsL-12" value="articleController.registerArticle" style="rounded=0;html=1;jettySize=auto;orthogonalLoop=1;fontSize=11;endArrow=block;endFill=0;endSize=8;strokeWidth=1;shadow=0;labelBackgroundColor=none;edgeStyle=orthogonalEdgeStyle;" edge="1" parent="WIyWlLk6GJQsqaUBKTNV-1">
          <mxGeometry y="80" relative="1" as="geometry">
            <mxPoint as="offset" />
            <mxPoint x="574" y="480" as="sourcePoint" />
            <mxPoint x="574" y="520" as="targetPoint" />
            <Array as="points">
              <mxPoint x="574" y="500" />
              <mxPoint x="574" y="500" />
            </Array>
          </mxGeometry>
        </mxCell>
        <mxCell id="sJuYMFzOjBdGln9-IdsL-13" value="controller.js" style="rhombus;whiteSpace=wrap;html=1;shadow=0;fontFamily=Helvetica;fontSize=12;align=center;strokeWidth=1;spacing=6;spacingTop=-4;" vertex="1" parent="WIyWlLk6GJQsqaUBKTNV-1">
          <mxGeometry x="524" y="520" width="100" height="80" as="geometry" />
        </mxCell>
        <mxCell id="sJuYMFzOjBdGln9-IdsL-15" value="newArticleRegistered" style="rounded=0;html=1;jettySize=auto;orthogonalLoop=1;fontSize=11;endArrow=block;endFill=0;endSize=8;strokeWidth=1;shadow=0;labelBackgroundColor=none;edgeStyle=orthogonalEdgeStyle;" edge="1" parent="WIyWlLk6GJQsqaUBKTNV-1">
          <mxGeometry y="66" relative="1" as="geometry">
            <mxPoint as="offset" />
            <mxPoint x="574" y="600" as="sourcePoint" />
            <mxPoint x="574" y="640" as="targetPoint" />
            <Array as="points">
              <mxPoint x="574" y="620" />
              <mxPoint x="574" y="620" />
            </Array>
          </mxGeometry>
        </mxCell>
        <mxCell id="sJuYMFzOjBdGln9-IdsL-16" value="erpApi&lt;br&gt;erpPoller" style="rhombus;whiteSpace=wrap;html=1;shadow=0;fontFamily=Helvetica;fontSize=12;align=center;strokeWidth=1;spacing=6;spacingTop=-4;" vertex="1" parent="WIyWlLk6GJQsqaUBKTNV-1">
          <mxGeometry x="524" y="640" width="100" height="80" as="geometry" />
        </mxCell>
        <mxCell id="sJuYMFzOjBdGln9-IdsL-17" value="synchDataEsl(formattedData)" style="rounded=0;html=1;jettySize=auto;orthogonalLoop=1;fontSize=11;endArrow=block;endFill=0;endSize=8;strokeWidth=1;shadow=0;labelBackgroundColor=none;edgeStyle=orthogonalEdgeStyle;" edge="1" parent="WIyWlLk6GJQsqaUBKTNV-1" target="sJuYMFzOjBdGln9-IdsL-20">
          <mxGeometry x="-0.2941" y="-39" relative="1" as="geometry">
            <mxPoint as="offset" />
            <mxPoint x="524" y="679.5" as="sourcePoint" />
            <mxPoint x="400" y="680" as="targetPoint" />
            <Array as="points">
              <mxPoint x="504" y="679.5" />
              <mxPoint x="504" y="679.5" />
            </Array>
          </mxGeometry>
        </mxCell>
        <mxCell id="sJuYMFzOjBdGln9-IdsL-18" value="" style="endArrow=none;dashed=1;html=1;dashPattern=1 3;strokeWidth=2;rounded=0;exitX=1;exitY=0.5;exitDx=0;exitDy=0;" edge="1" parent="WIyWlLk6GJQsqaUBKTNV-1" source="sJuYMFzOjBdGln9-IdsL-16" target="sJuYMFzOjBdGln9-IdsL-19">
          <mxGeometry width="50" height="50" relative="1" as="geometry">
            <mxPoint x="550" y="600" as="sourcePoint" />
            <mxPoint x="690" y="680" as="targetPoint" />
          </mxGeometry>
        </mxCell>
        <mxCell id="sJuYMFzOjBdGln9-IdsL-19" value="combineData(erp,front)&lt;br&gt;formatData" style="rounded=1;whiteSpace=wrap;html=1;" vertex="1" parent="WIyWlLk6GJQsqaUBKTNV-1">
          <mxGeometry x="680" y="665" width="140" height="45" as="geometry" />
        </mxCell>
        <mxCell id="sJuYMFzOjBdGln9-IdsL-20" value="EslApi.js" style="shape=parallelogram;perimeter=parallelogramPerimeter;whiteSpace=wrap;html=1;fixedSize=1;" vertex="1" parent="WIyWlLk6GJQsqaUBKTNV-1">
          <mxGeometry x="290" y="647.5" width="120" height="60" as="geometry" />
        </mxCell>
        <mxCell id="sJuYMFzOjBdGln9-IdsL-22" value="" style="endArrow=none;dashed=1;html=1;dashPattern=1 3;strokeWidth=2;rounded=0;" edge="1" parent="WIyWlLk6GJQsqaUBKTNV-1">
          <mxGeometry width="50" height="50" relative="1" as="geometry">
            <mxPoint x="630" y="560" as="sourcePoint" />
            <mxPoint x="760" y="660" as="targetPoint" />
            <Array as="points">
              <mxPoint x="760" y="560" />
            </Array>
          </mxGeometry>
        </mxCell>
        <mxCell id="sJuYMFzOjBdGln9-IdsL-23" value="" style="curved=1;endArrow=classic;html=1;rounded=0;" edge="1" parent="WIyWlLk6GJQsqaUBKTNV-1">
          <mxGeometry width="50" height="50" relative="1" as="geometry">
            <mxPoint x="574" y="720" as="sourcePoint" />
            <mxPoint x="560" y="730" as="targetPoint" />
            <Array as="points">
              <mxPoint x="574" y="770" />
              <mxPoint x="540" y="750" />
              <mxPoint x="524" y="720" />
            </Array>
          </mxGeometry>
        </mxCell>
        <mxCell id="sJuYMFzOjBdGln9-IdsL-24" value="updatedArticles" style="edgeLabel;html=1;align=center;verticalAlign=middle;resizable=0;points=[];" vertex="1" connectable="0" parent="sJuYMFzOjBdGln9-IdsL-23">
          <mxGeometry x="-0.5797" y="-5" relative="1" as="geometry">
            <mxPoint x="51" y="-14" as="offset" />
          </mxGeometry>
        </mxCell>
        <mxCell id="sJuYMFzOjBdGln9-IdsL-25" value="MongoDB" style="shape=cylinder3;whiteSpace=wrap;html=1;boundedLbl=1;backgroundOutline=1;size=15;" vertex="1" parent="WIyWlLk6GJQsqaUBKTNV-1">
          <mxGeometry x="880" y="400" width="60" height="80" as="geometry" />
        </mxCell>
        <mxCell id="sJuYMFzOjBdGln9-IdsL-26" value="" style="endArrow=classic;startArrow=classic;html=1;rounded=0;exitX=0;exitY=0.5;exitDx=0;exitDy=0;exitPerimeter=0;" edge="1" parent="WIyWlLk6GJQsqaUBKTNV-1" source="sJuYMFzOjBdGln9-IdsL-25" target="sJuYMFzOjBdGln9-IdsL-11">
          <mxGeometry width="50" height="50" relative="1" as="geometry">
            <mxPoint x="490" y="510" as="sourcePoint" />
            <mxPoint x="540" y="460" as="targetPoint" />
          </mxGeometry>
        </mxCell>
        <mxCell id="sJuYMFzOjBdGln9-IdsL-29" value="" style="whiteSpace=wrap;html=1;aspect=fixed;dashed=1;fillColor=none;" vertex="1" parent="WIyWlLk6GJQsqaUBKTNV-1">
          <mxGeometry x="230" y="50" width="720" height="720" as="geometry" />
        </mxCell>
      </root>
    </mxGraphModel>
  </diagram>
</mxfile>
